<svg width="1024" height="1024" viewBox="0 0 1024 1024" fill="none" xmlns="http://www.w3.org/2000/svg">
<path fill-rule="evenodd" clip-rule="evenodd" d="M751.782 91C806.342 91 862.609 95.6021 908.402 125.261C946.862 150.171 982.383 185.6 1003.62 229.194C1021.05 264.988 1028.88 306.308 1020.83 351.782C1012.9 396.642 989.538 445.36 945.06 496.706C991.618 542.05 1028.29 633.887 1016.28 722.917C1010.19 768.152 991.513 812.734 955.147 850.118C929.389 876.597 894.528 899.42 849.263 916.314C809.52 931.147 766.61 934 724.19 934L163.196 934L211.62 754.389C187.628 748.074 160.119 732.669 134.115 713.471C107.033 693.476 81.3295 669.187 62.6036 646.281C23.801 598.816 -1.74657 519.896 0.0932371 435.564C1.93506 351.155 31.2187 260.986 102.519 191.153C155.174 139.584 214.195 108.139 322.444 91.0333L322.66 91C322.66 91 552.314 91 751.782 91ZM753.923 556.495C752.982 595.09 733.124 641.966 706.773 686.035C681.202 728.8 649.271 769.334 621.763 797.758H748.251C772.536 797.758 797.517 796.331 818.899 784.807C863.361 760.845 882.673 718.114 887.264 692.471C895.016 631.238 856.076 565.187 786.256 556.495H753.923ZM430.188 221.521C396.7 215.936 360.687 218.639 329.025 221.521C244.856 229.184 153.182 309.082 138.497 392.362C128.372 449.785 134.73 499.541 154.345 539.781C173.492 579.059 205.366 609.452 247.271 629.129L317.869 363.485H462.764L344.003 785.129C390.599 772.007 445.281 761.697 496.066 727.286C548.419 691.811 596.757 630.519 626.404 513.32C631.95 485.543 632.276 456.974 627.357 429.078C609.97 330.538 529.186 240.673 430.188 221.521ZM675.72 221.566C682.647 229.091 690.363 239.755 698.193 252.35C707.969 268.076 718.04 286.996 727.125 306.961C744.708 345.608 758.789 388.627 759.601 420.252C794.639 420.252 831.471 414.734 856.839 390.562C864.589 383.177 870.711 375.521 875.399 367.737C886.864 348.697 889.862 328.706 886.943 309.628C884.73 295.174 878.409 281.047 869.604 268.19C844.416 231.411 796.477 222.532 751.905 222.175L675.72 221.566Z" fill="#FFE100"/>
</svg>
